# xmcd
#
# Track frame offsets: 
#        150
#        13312
#        28347
#        41397
#        54222
#        68887
#        81895
#        94500
#        108675
#        123365
#        134962
#        148537
#        161662
#        173735
#        188135
#        202612
#
# Disc length: 2883 seconds
#
# Revision: 1
# Processed by: cddbd v1.5.2PL0 Copyright (c) Steve Scherf et al.
# Submitted via: ExactAudioCopy v1.0b3
#
DISCID=dd0b4110
DTITLE=Various Artist - Jazz Blues Rarities 1924-1939
DYEAR=1991
DGENRE=Blues
TTITLE0=Clarence Williams Washboard Five - Red River Blues
TTITLE1=Trixie Smith and Her Down Home Syncopators - Freight Train Blues
TTITLE2=Big Bill Broonzy - You Do Me Any Old Way
TTITLE3=Cow Cow Davenport and Band - I Ain't No Iceman
TTITLE4=Edith North Johnson - Can't Make Another Day
TTITLE5=Ida Cox and Her Band - Fogyism
TTITLE6=Bertha Chipipe Hill - Trouble In Mind
TTITLE7=Ma Rainey and Her Georgia Band - Chain Gang Blues
TTITLE8=Blind Roosevelt Graves and Brother - New York Blues
TTITLE9=Ollie Shepard and His Kentucky Boys - She Walks Like a Kangaroo
TTITLE10=Rosetta Crawford and James P. Johnson's Hep Cats - I'm Tired Of
TTITLE10=Fattenin' Frogs For Snakes
TTITLE11=Joe Turner and Pete Johnson's Boogie Woogie Boys - Cherry Red
TTITLE12=Billie Holiday and Her Orchestra - Billie's Blues
TTITLE13=Jimmy Rushing and Count Basie's Orchestra - Boogie Woogie (I Ma
TTITLE13=y Be Wrong)
TTITLE14=Jimmie Gordon and His Vip Vop Band - Me And My Gin
TTITLE15=Rosetta Howard and The Harlem Hamfats - Rosetta Blues
EXTD=
EXTT0=
EXTT1=
EXTT2=
EXTT3=
EXTT4=
EXTT5=
EXTT6=
EXTT7=
EXTT8=
EXTT9=
EXTT10=
EXTT11=
EXTT12=
EXTT13=
EXTT14=
EXTT15=
PLAYORDER=
